/* XPM */
static char *nix_snowflake_20[] = {
/* columns rows colors chars-per-pixel */
"26 23 85 1 ",
"  c None",
". c #4869AA",
"X c #4A6AAF",
"o c #4A6CAE",
"O c #4D6FAE",
"+ c #4A6BB0",
"@ c #4B6CB2",
"# c #4B6DB2",
"$ c #4B6DB3",
"% c #4C6DB3",
"& c #4C6EB4",
"* c #4C6EB5",
"= c #4D6FB6",
"- c #4D6FB7",
"; c #4D70B1",
": c #4D70B3",
"> c #4F73B5",
", c #4D70B7",
"< c #4E70B8",
"1 c #4E71B8",
"2 c #4E71B9",
"3 c #4E72B9",
"4 c #4E71BA",
"5 c #4E72BA",
"6 c #4F72BA",
"7 c #4F72BB",
"8 c #4F73BC",
"9 c #4F73BD",
"0 c #5074BB",
"q c #5073BD",
"w c #5074BD",
"e c #5175BD",
"r c #5074BE",
"t c #5074BF",
"y c #5175BF",
"u c #557BBF",
"i c #5175C0",
"p c #5176C1",
"a c #5277C0",
"s c #5176C2",
"d c #5176C3",
"f c #5276C2",
"g c #5277C2",
"h c #5277C3",
"j c #5378C2",
"k c #5278C3",
"l c #5378C4",
"z c #577EC4",
"x c #5981BC",
"c c #5C85BE",
"v c #5D87C2",
"b c #5A82C6",
"n c #6894CF",
"m c #6C9AD2",
"M c #6F9DD4",
"N c #73A7D7",
"B c #75A8D7",
"V c #74A5D9",
"C c #77A9DB",
"Z c #76ADDB",
"A c #78AADA",
"S c #7AACDB",
"D c #7AADDC",
"F c #7BADDC",
"G c #7BB1DD",
"H c #7BB2DE",
"J c #7DB1DD",
"K c #7EB1DD",
"L c #7EB2DE",
"P c #7EB3DE",
"I c #7EB3DF",
"U c #7BB4DF",
"Y c #7DB4DF",
"T c #7EB4DF",
"R c #7EB4E0",
"E c #7EB5E0",
"W c #7EB6E1",
"Q c #7EB7E1",
"! c #7CB6E2",
"~ c #7EB7E2",
"^ c #7EB8E2",
"/ c #7EB8E3",
"( c #7EB9E3",
") c #7EBAE4",
"_ c #7FBBE5",
/* pixels */
"      hh    )))   ))      ",
"      hht    ))) )((      ",
"      hht    )))((((      ",
"       ht8    )(((Q       ",
"    hhhht33=$:Z(QQ        ",
"   hhhhht33=$XxQQQ    h   ",
"   hhhhjht3=%+.BQQ   hh   ",
"       SAV      TKK hhh   ",
"       KK        KKMhhh   ",
"      TKK        KDbhh    ",
" ((QQQQQ          n8thhhh ",
")(((QQQG          038tthhh",
" ))((((c          =3338th ",
"    ))No+        %==      ",
"   )))v+$        +$       ",
"   ))) ===      O:,       ",
"   ))   ,3uCKKTTGUQ))))   ",
"   )    338mKKTQQ(())))   ",
"        8qtzSKTQQ(()))    ",
"       tthhh    Q((       ",
"      tthhhhh    (()      ",
"      hhh  hh    (()      ",
"      hj   jhl    ()      "
};
