/* XPM */
static char *nix_snowflake_white[] = {
/* columns rows colors chars-per-pixel */
"20 17 2 1 ",
"  c None",
". c white",
/* pixels */
"     .   ...  .     ",
"     ..   .. ..     ",
"     ...  .....     ",
"   ...........      ",
"  ............  ..  ",
"      .     ..  ..  ",
"     ..      ....   ",
"    ...       ....  ",
"......        ......",
"  ....       ...    ",
"   ....      ..     ",
"  ..  ..     .      ",
"  ..  ............  ",
"      ...........   ",
"     .....  ...     ",
"     .. ..   ..     ",
"     .  ...   .     "
};
