/* XPM */
static char *nix_snowflake[] = {
/* columns rows colors chars-per-pixel */
"20 17 73 1 ",
"  c None",
". c #4868AC",
"X c #496AAE",
"o c #4A6BB0",
"O c #4B6CB1",
"+ c #4B6DB3",
"@ c #4C6EB3",
"# c #4C6EB4",
"$ c #4C6EB5",
"% c #4D6FB6",
"& c #4E72B4",
"* c #4D70B7",
"= c #4E71B8",
"- c #4E71B9",
"; c #4F72BB",
": c #4F73BB",
"> c #4F73BC",
", c #4F73BD",
"< c #5276B7",
"1 c #5073BB",
"2 c #5074BD",
"3 c #5074BE",
"4 c #5074BF",
"5 c #5075BF",
"6 c #5175BF",
"7 c #547AB8",
"8 c #587FBA",
"9 c #5175C0",
"0 c #5176C0",
"q c #5176C1",
"w c #5276C1",
"e c #5176C2",
"r c #5277C2",
"t c #5277C3",
"y c #5378C3",
"u c #547AC1",
"i c #5378C4",
"p c #547AC4",
"a c #557AC4",
"s c #5A83C0",
"d c #628EC5",
"f c #638FCC",
"g c #648FCC",
"h c #6491C7",
"j c #6C9AD2",
"k c #71A1D6",
"l c #73A3D7",
"z c #77A8D9",
"x c #7AACDB",
"c c #7BAEDD",
"v c #79B1DE",
"b c #7DB0DD",
"n c #7CB2DE",
"m c #7EB2DE",
"M c #7EB3DE",
"N c #7EB3DF",
"B c #7FB3DF",
"V c #7EB4DF",
"C c #7FB4DF",
"Z c #7BB4E0",
"A c #7BB5E1",
"S c #7DB5E0",
"D c #7EB4E0",
"F c #7EB5E0",
"G c #7EB6E1",
"H c #7EB7E1",
"J c #7DB7E2",
"K c #7EB7E2",
"L c #7EB8E2",
"P c #7EB8E3",
"I c #7EB9E3",
"U c #7EB9E4",
"Y c #7EBAE4",
/* pixels */
"     t   YYY  Y     ",
"     t6   YY II     ",
"     t6:  AYIIF     ",
"   ttt6:*+<vIF      ",
"  tttt6:*@XdFF  tt  ",
"     kkj    FBV tt  ",
"     BB      Bxat   ",
"    FFV      cg6tt  ",
"YIIFFB        1:66tt",
"  IIIh.      ##:    ",
"   YA*+      o+     ",
"  YY  #*    87s     ",
"  YY  ::fBBFFFYYYY  ",
"      :,uzBFFIYYY   ",
"     66tta  FII     ",
"     tt tt   IY     ",
"     t  yti   Y     "
};
